<mxfile host="Electron" agent="Mozilla/5.0 (Windows NT 10.0; Win64; x64) AppleWebKit/537.36 (KHTML, like Gecko) draw.io/28.0.6 Chrome/138.0.7204.100 Electron/37.2.3 Safari/537.36" version="28.0.6">
  <diagram name="Page-1" id="R90nyv3Rz4XIFROkiVHW">
    <mxGraphModel dx="3278" dy="2340" grid="1" gridSize="10" guides="1" tooltips="1" connect="1" arrows="1" fold="1" page="1" pageScale="1" pageWidth="1600" pageHeight="1200" math="0" shadow="0">
      <root>
        <mxCell id="0" />
        <mxCell id="1" parent="0" />
        <mxCell id="1lQt2iCKs8pIlGNOvXYT-43" value="" style="whiteSpace=wrap;html=1;opacity=90;perimeterSpacing=1;fillColor=none;fontStyle=1;spacing=0;" parent="1" vertex="1">
          <mxGeometry x="376" y="320" width="274" height="580" as="geometry" />
        </mxCell>
        <mxCell id="rxIv7JKoTVmc35k2_a1N-33" style="rounded=0;orthogonalLoop=1;jettySize=auto;html=1;exitX=0.25;exitY=1;exitDx=0;exitDy=0;entryX=0.238;entryY=-0.011;entryDx=0;entryDy=0;entryPerimeter=0;" edge="1" parent="1" source="3E_d9uGPmS8snrze4PGS-16" target="GmHCTYgidwJcOvD8zUk5-22">
          <mxGeometry relative="1" as="geometry" />
        </mxCell>
        <mxCell id="rxIv7JKoTVmc35k2_a1N-39" value="&lt;b&gt;State&amp;nbsp;&lt;/b&gt;&lt;div&gt;&lt;b&gt;Update&lt;/b&gt;&lt;/div&gt;" style="edgeLabel;html=1;align=center;verticalAlign=middle;resizable=0;points=[];" vertex="1" connectable="0" parent="rxIv7JKoTVmc35k2_a1N-33">
          <mxGeometry x="-0.0672" y="-3" relative="1" as="geometry">
            <mxPoint as="offset" />
          </mxGeometry>
        </mxCell>
        <mxCell id="3E_d9uGPmS8snrze4PGS-16" value="wn = [&amp;nbsp; wn1 wn2 wn3]&lt;div&gt;xd = ctrlPoint1&lt;/div&gt;" style="rounded=1;whiteSpace=wrap;html=1;shadow=0;fontStyle=1" parent="1" vertex="1">
          <mxGeometry x="418.5" y="390.66" width="165" height="60" as="geometry" />
        </mxCell>
        <mxCell id="rxIv7JKoTVmc35k2_a1N-98" style="edgeStyle=orthogonalEdgeStyle;rounded=0;orthogonalLoop=1;jettySize=auto;html=1;exitX=1;exitY=0.5;exitDx=0;exitDy=0;" edge="1" parent="1" source="3E_d9uGPmS8snrze4PGS-25">
          <mxGeometry relative="1" as="geometry">
            <mxPoint x="180" y="620.3333333333335" as="targetPoint" />
          </mxGeometry>
        </mxCell>
        <mxCell id="3E_d9uGPmS8snrze4PGS-25" value="Final point" style="rounded=1;whiteSpace=wrap;html=1;shadow=0;fontStyle=1" parent="1" vertex="1">
          <mxGeometry x="-10" y="590" width="120" height="60" as="geometry" />
        </mxCell>
        <mxCell id="3E_d9uGPmS8snrze4PGS-33" value="" style="rounded=0;orthogonalLoop=1;jettySize=auto;html=1;fontStyle=1" parent="1" source="3E_d9uGPmS8snrze4PGS-29" target="3E_d9uGPmS8snrze4PGS-32" edge="1">
          <mxGeometry relative="1" as="geometry" />
        </mxCell>
        <mxCell id="3E_d9uGPmS8snrze4PGS-29" value="" style="ellipse;whiteSpace=wrap;html=1;fontStyle=1" parent="1" vertex="1">
          <mxGeometry x="980" y="605" width="30" height="30" as="geometry" />
        </mxCell>
        <mxCell id="3E_d9uGPmS8snrze4PGS-35" value="" style="rounded=0;orthogonalLoop=1;jettySize=auto;html=1;fontStyle=1" parent="1" source="3E_d9uGPmS8snrze4PGS-32" target="3E_d9uGPmS8snrze4PGS-34" edge="1">
          <mxGeometry relative="1" as="geometry" />
        </mxCell>
        <mxCell id="3E_d9uGPmS8snrze4PGS-32" value="PD Controller" style="whiteSpace=wrap;html=1;fontStyle=1" parent="1" vertex="1">
          <mxGeometry x="1060" y="591" width="120" height="60" as="geometry" />
        </mxCell>
        <mxCell id="3E_d9uGPmS8snrze4PGS-37" value="" style="rounded=0;orthogonalLoop=1;jettySize=auto;html=1;entryX=-0.028;entryY=0.503;entryDx=0;entryDy=0;entryPerimeter=0;fontStyle=1" parent="1" source="3E_d9uGPmS8snrze4PGS-34" target="3E_d9uGPmS8snrze4PGS-50" edge="1">
          <mxGeometry relative="1" as="geometry">
            <mxPoint x="1385" y="610" as="targetPoint" />
          </mxGeometry>
        </mxCell>
        <mxCell id="3E_d9uGPmS8snrze4PGS-34" value="Plant" style="whiteSpace=wrap;html=1;fontStyle=1" parent="1" vertex="1">
          <mxGeometry x="1240" y="593" width="120" height="60" as="geometry" />
        </mxCell>
        <mxCell id="3E_d9uGPmS8snrze4PGS-39" value="" style="rounded=0;orthogonalLoop=1;jettySize=auto;html=1;exitX=1;exitY=0.5;exitDx=0;exitDy=0;fontStyle=1" parent="1" source="3E_d9uGPmS8snrze4PGS-50" target="3E_d9uGPmS8snrze4PGS-38" edge="1">
          <mxGeometry relative="1" as="geometry">
            <mxPoint x="1430" y="610" as="sourcePoint" />
          </mxGeometry>
        </mxCell>
        <mxCell id="3E_d9uGPmS8snrze4PGS-40" style="edgeStyle=none;rounded=0;orthogonalLoop=1;jettySize=auto;html=1;exitX=1;exitY=0.5;exitDx=0;exitDy=0;entryX=0.5;entryY=1;entryDx=0;entryDy=0;fontStyle=1" parent="1" source="3E_d9uGPmS8snrze4PGS-38" target="3E_d9uGPmS8snrze4PGS-29" edge="1">
          <mxGeometry relative="1" as="geometry">
            <Array as="points">
              <mxPoint x="1570" y="623" />
              <mxPoint x="1570" y="701" />
              <mxPoint x="1570" y="791" />
              <mxPoint x="995" y="790" />
            </Array>
          </mxGeometry>
        </mxCell>
        <mxCell id="3E_d9uGPmS8snrze4PGS-38" value="1/s" style="whiteSpace=wrap;html=1;fontStyle=1" parent="1" vertex="1">
          <mxGeometry x="1500" y="593" width="35" height="60" as="geometry" />
        </mxCell>
        <mxCell id="3E_d9uGPmS8snrze4PGS-41" value="qActual" style="text;html=1;align=center;verticalAlign=middle;resizable=0;points=[];autosize=1;strokeColor=none;fillColor=none;fontStyle=1" parent="1" vertex="1">
          <mxGeometry x="960" y="-20" width="60" height="30" as="geometry" />
        </mxCell>
        <mxCell id="3E_d9uGPmS8snrze4PGS-50" value="1/s" style="whiteSpace=wrap;html=1;fontStyle=1" parent="1" vertex="1">
          <mxGeometry x="1400" y="593" width="35" height="60" as="geometry" />
        </mxCell>
        <mxCell id="rxIv7JKoTVmc35k2_a1N-36" style="rounded=0;orthogonalLoop=1;jettySize=auto;html=1;exitX=0.23;exitY=0.99;exitDx=0;exitDy=0;entryX=0.227;entryY=0.012;entryDx=0;entryDy=0;entryPerimeter=0;exitPerimeter=0;" edge="1" parent="1" source="GmHCTYgidwJcOvD8zUk5-22" target="1lQt2iCKs8pIlGNOvXYT-6">
          <mxGeometry relative="1" as="geometry">
            <mxPoint x="461" y="630" as="sourcePoint" />
            <mxPoint x="466" y="779.9999999999999" as="targetPoint" />
          </mxGeometry>
        </mxCell>
        <mxCell id="rxIv7JKoTVmc35k2_a1N-38" value="&lt;b&gt;State&amp;nbsp;&lt;/b&gt;&lt;div&gt;&lt;b&gt;Update&lt;/b&gt;&lt;/div&gt;" style="edgeLabel;html=1;align=center;verticalAlign=middle;resizable=0;points=[];" vertex="1" connectable="0" parent="rxIv7JKoTVmc35k2_a1N-36">
          <mxGeometry x="-0.0856" relative="1" as="geometry">
            <mxPoint as="offset" />
          </mxGeometry>
        </mxCell>
        <mxCell id="GmHCTYgidwJcOvD8zUk5-22" value="wn = [&amp;nbsp; wn1 wn2 wn3]&lt;div&gt;xd = ctrlPoint 2&lt;/div&gt;" style="rounded=1;whiteSpace=wrap;html=1;shadow=0;dashed=1;dashPattern=12 12;fontStyle=1" parent="1" vertex="1">
          <mxGeometry x="418.5" y="590" width="170" height="60" as="geometry" />
        </mxCell>
        <mxCell id="1lQt2iCKs8pIlGNOvXYT-6" value="wn = [&amp;nbsp; wn1 wn2 wn3]&lt;div&gt;xd = Final Point&lt;/div&gt;" style="rounded=1;whiteSpace=wrap;html=1;shadow=0;dashed=1;dashPattern=12 12;fontStyle=1;spacing=0;" parent="1" vertex="1">
          <mxGeometry x="418.5" y="800" width="170" height="60" as="geometry" />
        </mxCell>
        <mxCell id="rxIv7JKoTVmc35k2_a1N-4" value="0 &amp;lt; t &amp;lt; t1" style="text;html=1;align=center;verticalAlign=middle;whiteSpace=wrap;rounded=0;fontStyle=1" vertex="1" parent="1">
          <mxGeometry x="478.5" y="363.65999999999997" width="60" height="30" as="geometry" />
        </mxCell>
        <mxCell id="rxIv7JKoTVmc35k2_a1N-10" value="t1 &amp;lt;= t &amp;lt; t2" style="text;html=1;align=center;verticalAlign=middle;whiteSpace=wrap;rounded=0;fontStyle=1" vertex="1" parent="1">
          <mxGeometry x="475.5" y="562" width="67.5" height="30" as="geometry" />
        </mxCell>
        <mxCell id="rxIv7JKoTVmc35k2_a1N-11" value="t &amp;gt; t2" style="text;html=1;align=center;verticalAlign=middle;whiteSpace=wrap;rounded=0;fontStyle=1" vertex="1" parent="1">
          <mxGeometry x="478.5" y="770" width="60" height="30" as="geometry" />
        </mxCell>
        <mxCell id="rxIv7JKoTVmc35k2_a1N-63" value="" style="group" vertex="1" connectable="0" parent="1">
          <mxGeometry x="690" y="320" width="130" height="580" as="geometry" />
        </mxCell>
        <mxCell id="rxIv7JKoTVmc35k2_a1N-58" value="" style="rounded=0;whiteSpace=wrap;html=1;" vertex="1" parent="rxIv7JKoTVmc35k2_a1N-63">
          <mxGeometry width="130" height="580" as="geometry" />
        </mxCell>
        <mxCell id="rxIv7JKoTVmc35k2_a1N-59" value="" style="ellipse;whiteSpace=wrap;html=1;aspect=fixed;" vertex="1" parent="rxIv7JKoTVmc35k2_a1N-63">
          <mxGeometry x="20" y="90" width="20" height="20" as="geometry" />
        </mxCell>
        <mxCell id="rxIv7JKoTVmc35k2_a1N-60" value="" style="ellipse;whiteSpace=wrap;html=1;aspect=fixed;" vertex="1" parent="rxIv7JKoTVmc35k2_a1N-63">
          <mxGeometry x="20" y="291" width="20" height="20" as="geometry" />
        </mxCell>
        <mxCell id="rxIv7JKoTVmc35k2_a1N-61" value="" style="ellipse;whiteSpace=wrap;html=1;aspect=fixed;" vertex="1" parent="rxIv7JKoTVmc35k2_a1N-63">
          <mxGeometry x="20" y="499" width="20" height="20" as="geometry" />
        </mxCell>
        <mxCell id="rxIv7JKoTVmc35k2_a1N-68" style="rounded=0;orthogonalLoop=1;jettySize=auto;html=1;exitX=1;exitY=0.5;exitDx=0;exitDy=0;dashed=1;dashPattern=12 12;" edge="1" parent="rxIv7JKoTVmc35k2_a1N-63" source="rxIv7JKoTVmc35k2_a1N-60">
          <mxGeometry relative="1" as="geometry">
            <mxPoint x="130" y="301" as="targetPoint" />
          </mxGeometry>
        </mxCell>
        <mxCell id="rxIv7JKoTVmc35k2_a1N-70" style="rounded=0;orthogonalLoop=1;jettySize=auto;html=1;exitX=1;exitY=0.5;exitDx=0;exitDy=0;entryX=0.999;entryY=0.518;entryDx=0;entryDy=0;entryPerimeter=0;" edge="1" parent="rxIv7JKoTVmc35k2_a1N-63" source="rxIv7JKoTVmc35k2_a1N-59" target="rxIv7JKoTVmc35k2_a1N-58">
          <mxGeometry relative="1" as="geometry" />
        </mxCell>
        <mxCell id="rxIv7JKoTVmc35k2_a1N-71" style="rounded=0;orthogonalLoop=1;jettySize=auto;html=1;exitX=1;exitY=0.5;exitDx=0;exitDy=0;entryX=1.001;entryY=0.519;entryDx=0;entryDy=0;entryPerimeter=0;dashed=1;dashPattern=12 12;" edge="1" parent="rxIv7JKoTVmc35k2_a1N-63" source="rxIv7JKoTVmc35k2_a1N-61" target="rxIv7JKoTVmc35k2_a1N-58">
          <mxGeometry relative="1" as="geometry" />
        </mxCell>
        <mxCell id="rxIv7JKoTVmc35k2_a1N-64" style="edgeStyle=orthogonalEdgeStyle;rounded=0;orthogonalLoop=1;jettySize=auto;html=1;exitX=1;exitY=0.5;exitDx=0;exitDy=0;entryX=0;entryY=0.5;entryDx=0;entryDy=0;" edge="1" parent="1" source="3E_d9uGPmS8snrze4PGS-16" target="rxIv7JKoTVmc35k2_a1N-59">
          <mxGeometry relative="1" as="geometry" />
        </mxCell>
        <mxCell id="rxIv7JKoTVmc35k2_a1N-65" style="rounded=0;orthogonalLoop=1;jettySize=auto;html=1;exitX=1;exitY=0.5;exitDx=0;exitDy=0;entryX=0;entryY=0.5;entryDx=0;entryDy=0;dashed=1;dashPattern=12 12;" edge="1" parent="1" source="GmHCTYgidwJcOvD8zUk5-22" target="rxIv7JKoTVmc35k2_a1N-60">
          <mxGeometry relative="1" as="geometry" />
        </mxCell>
        <mxCell id="rxIv7JKoTVmc35k2_a1N-66" style="rounded=0;orthogonalLoop=1;jettySize=auto;html=1;exitX=1;exitY=0.5;exitDx=0;exitDy=0;entryX=0;entryY=0.5;entryDx=0;entryDy=0;dashed=1;dashPattern=12 12;" edge="1" parent="1" source="1lQt2iCKs8pIlGNOvXYT-6" target="rxIv7JKoTVmc35k2_a1N-61">
          <mxGeometry relative="1" as="geometry" />
        </mxCell>
        <mxCell id="rxIv7JKoTVmc35k2_a1N-72" style="edgeStyle=orthogonalEdgeStyle;rounded=0;orthogonalLoop=1;jettySize=auto;html=1;exitX=1;exitY=0.517;exitDx=0;exitDy=0;entryX=0;entryY=0.5;entryDx=0;entryDy=0;exitPerimeter=0;" edge="1" parent="1" source="rxIv7JKoTVmc35k2_a1N-58" target="3E_d9uGPmS8snrze4PGS-29">
          <mxGeometry relative="1" as="geometry" />
        </mxCell>
        <mxCell id="rxIv7JKoTVmc35k2_a1N-74" value="&lt;b&gt;&lt;font style=&quot;font-size: 14px;&quot;&gt;Bus&lt;/font&gt;&lt;/b&gt;" style="text;html=1;align=center;verticalAlign=middle;resizable=0;points=[];autosize=1;strokeColor=none;fillColor=none;" vertex="1" parent="1">
          <mxGeometry x="730" y="910" width="50" height="30" as="geometry" />
        </mxCell>
        <mxCell id="rxIv7JKoTVmc35k2_a1N-77" value="" style="group;portConstraintRotation=0;direction=east;" vertex="1" connectable="0" parent="1">
          <mxGeometry x="180" y="320" width="130" height="580" as="geometry" />
        </mxCell>
        <mxCell id="rxIv7JKoTVmc35k2_a1N-87" value="" style="group" vertex="1" connectable="0" parent="rxIv7JKoTVmc35k2_a1N-77">
          <mxGeometry y="1" width="130" height="580" as="geometry" />
        </mxCell>
        <mxCell id="rxIv7JKoTVmc35k2_a1N-94" value="" style="group" vertex="1" connectable="0" parent="rxIv7JKoTVmc35k2_a1N-87">
          <mxGeometry width="130" height="580" as="geometry" />
        </mxCell>
        <mxCell id="rxIv7JKoTVmc35k2_a1N-78" value="" style="rounded=0;whiteSpace=wrap;html=1;" vertex="1" parent="rxIv7JKoTVmc35k2_a1N-94">
          <mxGeometry x="1" width="130" height="580" as="geometry" />
        </mxCell>
        <mxCell id="rxIv7JKoTVmc35k2_a1N-79" value="" style="ellipse;whiteSpace=wrap;html=1;aspect=fixed;" vertex="1" parent="rxIv7JKoTVmc35k2_a1N-94">
          <mxGeometry x="90" y="90" width="20" height="20" as="geometry" />
        </mxCell>
        <mxCell id="rxIv7JKoTVmc35k2_a1N-80" value="" style="ellipse;whiteSpace=wrap;html=1;aspect=fixed;" vertex="1" parent="rxIv7JKoTVmc35k2_a1N-94">
          <mxGeometry x="90" y="289" width="20" height="20" as="geometry" />
        </mxCell>
        <mxCell id="rxIv7JKoTVmc35k2_a1N-81" value="" style="ellipse;whiteSpace=wrap;html=1;aspect=fixed;" vertex="1" parent="rxIv7JKoTVmc35k2_a1N-94">
          <mxGeometry x="90" y="499" width="20" height="20" as="geometry" />
        </mxCell>
        <mxCell id="rxIv7JKoTVmc35k2_a1N-95" style="edgeStyle=orthogonalEdgeStyle;rounded=0;orthogonalLoop=1;jettySize=auto;html=1;exitX=-0.003;exitY=0.517;exitDx=0;exitDy=0;entryX=0;entryY=0.5;entryDx=0;entryDy=0;exitPerimeter=0;" edge="1" parent="rxIv7JKoTVmc35k2_a1N-94" source="rxIv7JKoTVmc35k2_a1N-78" target="rxIv7JKoTVmc35k2_a1N-80">
          <mxGeometry relative="1" as="geometry">
            <Array as="points">
              <mxPoint x="30" y="300" />
            </Array>
          </mxGeometry>
        </mxCell>
        <mxCell id="rxIv7JKoTVmc35k2_a1N-96" style="rounded=0;orthogonalLoop=1;jettySize=auto;html=1;exitX=0;exitY=0.518;exitDx=0;exitDy=0;entryX=0;entryY=0.5;entryDx=0;entryDy=0;exitPerimeter=0;" edge="1" parent="rxIv7JKoTVmc35k2_a1N-94" source="rxIv7JKoTVmc35k2_a1N-78" target="rxIv7JKoTVmc35k2_a1N-79">
          <mxGeometry relative="1" as="geometry" />
        </mxCell>
        <mxCell id="rxIv7JKoTVmc35k2_a1N-97" style="rounded=0;orthogonalLoop=1;jettySize=auto;html=1;exitX=-0.001;exitY=0.517;exitDx=0;exitDy=0;entryX=0;entryY=0.5;entryDx=0;entryDy=0;exitPerimeter=0;" edge="1" parent="rxIv7JKoTVmc35k2_a1N-94" source="rxIv7JKoTVmc35k2_a1N-78" target="rxIv7JKoTVmc35k2_a1N-81">
          <mxGeometry relative="1" as="geometry" />
        </mxCell>
        <mxCell id="rxIv7JKoTVmc35k2_a1N-101" value="Phase 1" style="text;html=1;align=center;verticalAlign=middle;whiteSpace=wrap;rounded=0;flipV=1;flipH=0;direction=west;rotation=295;" vertex="1" parent="rxIv7JKoTVmc35k2_a1N-94">
          <mxGeometry x="1" y="169" width="60" height="30" as="geometry" />
        </mxCell>
        <mxCell id="rxIv7JKoTVmc35k2_a1N-114" value="Phase 2" style="text;html=1;align=center;verticalAlign=middle;whiteSpace=wrap;rounded=0;flipV=1;flipH=0;direction=west;rotation=0;" vertex="1" parent="rxIv7JKoTVmc35k2_a1N-94">
          <mxGeometry x="10.003164657770725" y="274.99850753721" width="60" height="30" as="geometry" />
        </mxCell>
        <mxCell id="rxIv7JKoTVmc35k2_a1N-115" value="Phase 3" style="text;html=1;align=center;verticalAlign=middle;whiteSpace=wrap;rounded=0;flipV=1;flipH=0;direction=west;rotation=65;" vertex="1" parent="rxIv7JKoTVmc35k2_a1N-94">
          <mxGeometry x="10" y="419" width="60" height="30" as="geometry" />
        </mxCell>
        <mxCell id="rxIv7JKoTVmc35k2_a1N-30" style="edgeStyle=orthogonalEdgeStyle;rounded=0;orthogonalLoop=1;jettySize=auto;html=1;exitX=1;exitY=0.5;exitDx=0;exitDy=0;entryX=0;entryY=0.5;entryDx=0;entryDy=0;" edge="1" parent="1" source="rxIv7JKoTVmc35k2_a1N-79" target="3E_d9uGPmS8snrze4PGS-16">
          <mxGeometry relative="1" as="geometry">
            <mxPoint x="318.99999999997476" y="420" as="sourcePoint" />
          </mxGeometry>
        </mxCell>
        <mxCell id="rxIv7JKoTVmc35k2_a1N-32" style="rounded=0;orthogonalLoop=1;jettySize=auto;html=1;exitX=1;exitY=0.5;exitDx=0;exitDy=0;dashed=1;dashPattern=12 12;edgeStyle=elbowEdgeStyle;" edge="1" parent="1" source="rxIv7JKoTVmc35k2_a1N-81" target="1lQt2iCKs8pIlGNOvXYT-6">
          <mxGeometry relative="1" as="geometry">
            <mxPoint x="318.99999999997476" y="830" as="sourcePoint" />
          </mxGeometry>
        </mxCell>
        <mxCell id="rxIv7JKoTVmc35k2_a1N-93" style="edgeStyle=orthogonalEdgeStyle;rounded=0;orthogonalLoop=1;jettySize=auto;html=1;exitX=1;exitY=0.5;exitDx=0;exitDy=0;entryX=0;entryY=0.5;entryDx=0;entryDy=0;dashed=1;dashPattern=12 12;" edge="1" parent="1" source="rxIv7JKoTVmc35k2_a1N-80" target="GmHCTYgidwJcOvD8zUk5-22">
          <mxGeometry relative="1" as="geometry" />
        </mxCell>
        <mxCell id="rxIv7JKoTVmc35k2_a1N-99" value="&lt;b&gt;&lt;font style=&quot;font-size: 14px;&quot;&gt;Bus&lt;/font&gt;&lt;/b&gt;" style="text;html=1;align=center;verticalAlign=middle;resizable=0;points=[];autosize=1;strokeColor=none;fillColor=none;" vertex="1" parent="1">
          <mxGeometry x="230" y="910" width="50" height="30" as="geometry" />
        </mxCell>
      </root>
    </mxGraphModel>
  </diagram>
</mxfile>
